<svg width="1920" height="1080" viewBox="0 0 1920 1080" fill="none" xmlns="http://www.w3.org/2000/svg">
<rect width="1920" height="1080" fill="#F2F0EA"/>
<g clip-path="url(#clip0_205_321)">
<mask id="mask0_205_321" style="mask-type:luminance" maskUnits="userSpaceOnUse" x="461" y="482" width="999" height="116">
<path d="M1459.54 482H461V598H1459.54V482Z" fill="white"/>
</mask>
<g mask="url(#mask0_205_321)">
<path d="M521.312 597.505C509.249 597.505 498.509 594.865 488.925 589.42C481.985 585.46 476.036 580.179 471.41 573.414C466.783 566.814 463.644 559.223 461.991 550.973C460.504 542.723 460.669 534.637 462.487 526.717C464.47 518.137 468.105 510.711 473.558 504.111C479.176 497.346 485.951 492.065 493.882 488.27C500.987 484.805 508.754 482.825 517.181 482.165C524.617 481.67 532.217 482.165 540.149 483.98C547.42 485.465 554.525 487.94 561.465 491.405L545.602 522.262C536.514 517.972 527.921 515.991 519.659 516.652C515.694 516.982 512.224 517.807 509.249 519.127C506.11 520.612 503.631 522.592 501.318 525.232C499.5 527.542 498.343 530.182 497.518 533.152C496.691 536.122 496.691 544.208 497.352 547.343C497.848 550.313 499.004 553.118 500.657 555.428C502.309 557.738 504.292 559.718 506.44 560.873C511.398 563.679 517.511 564.834 524.782 564.174C531.556 563.678 538.662 561.698 546.098 558.398L560.804 588.265C549.733 593.215 538.662 596.02 527.756 597.01C525.443 597.175 523.295 597.175 521.312 597.175V597.505Z" fill="#006240"/>
<path d="M582.615 594.535V488.105H621.611V594.535H582.615Z" fill="#006240"/>
<path d="M682.585 488.93L712.658 543.218V488.93H744.054V594.205H712.658L682.585 544.373V594.205H649.372V488.93H682.585Z" fill="#006240"/>
<path d="M772.97 488.435H862.531V515.001H810.151V529.027H854.269V554.108H810.151V568.299H862.531V594.865H772.97V488.435Z" fill="#006240"/>
<path d="M978.032 543.548C983.648 547.838 986.459 554.933 986.459 564.669C986.459 571.104 984.641 577.209 980.84 582.984C975.883 590.575 968.614 594.37 959.027 594.37H888.636V488.765H945.48C958.037 488.765 967.952 491.9 975.386 498.171C982.823 504.441 986.459 513.516 986.459 525.562C986.459 532.987 983.648 538.928 978.032 543.548ZM924.989 514.011V535.957H937.877C945.646 535.957 949.444 532.327 949.444 525.067V524.737C949.444 517.642 945.646 514.011 938.043 514.011H924.989ZM949.444 564.173C949.444 556.748 945.646 553.283 938.043 553.283H924.989V575.064H937.877C945.646 575.064 949.444 571.434 949.444 564.173Z" fill="#006240"/>
<path d="M1109.23 548.498C1109.23 564.504 1104.93 576.549 1096.18 584.799C1087.42 593.215 1074.86 597.34 1058.17 597.34C1041.48 597.34 1029.26 593.05 1020.33 584.634C1011.41 576.219 1007.11 564.173 1007.11 548.663V488.93H1043.8V542.063C1043.8 550.808 1044.95 556.913 1047.1 560.708C1049.25 564.504 1052.88 566.319 1057.84 566.319C1062.8 566.319 1066.43 564.173 1068.91 559.883C1071.39 555.593 1072.55 549.158 1072.55 540.578V488.93H1109.23V548.498Z" fill="#006240"/>
<path d="M1186.9 597.505C1175.33 597.505 1164.92 594.865 1155.67 589.75C1148.89 585.955 1143.27 580.839 1138.81 574.239C1134.35 567.804 1131.21 560.543 1129.72 552.623C1128.23 544.703 1128.4 536.948 1130.22 529.192C1132.03 520.942 1135.67 513.681 1140.96 507.411C1146.41 500.811 1152.85 495.696 1160.46 492.065C1167.23 488.93 1174.83 486.95 1182.93 486.455C1190.03 485.96 1197.47 486.455 1205.07 488.105C1212.01 489.59 1218.95 491.9 1225.56 495.201L1210.36 526.552C1201.6 522.427 1193.34 520.612 1185.24 521.107C1181.44 521.437 1178.14 522.262 1175.16 523.582C1172.19 525.067 1169.71 527.047 1167.56 529.522C1165.91 531.667 1164.59 534.307 1163.93 537.278C1163.27 540.247 1163.27 543.218 1163.93 546.353C1164.42 549.323 1165.58 551.798 1167.07 554.108C1168.55 556.418 1170.54 558.233 1172.68 559.388C1177.47 562.193 1183.43 563.184 1190.36 562.689C1196.97 562.193 1203.75 560.378 1210.85 557.243L1225.06 589.09C1214.32 593.875 1203.75 596.68 1193.17 597.505C1191.03 597.505 1188.88 597.67 1186.9 597.67V597.505Z" fill="#006240"/>
<path d="M1308.01 594.865L1284.05 556.088V594.865H1246.88V488.6H1284.05V527.542L1306.53 488.6H1348L1313.14 540.908L1352.63 594.865H1308.18H1308.01Z" fill="#006240"/>
<path d="M1409.47 598C1393.61 598 1378.4 593.38 1364.03 584.14L1377.91 558.728C1381.05 561.533 1385.35 564.174 1390.63 566.649C1395.59 569.124 1401.37 570.279 1407.82 570.279C1410.46 570.279 1412.94 569.949 1415.09 569.289C1417.4 568.629 1418.72 566.979 1419.22 564.339C1419.22 563.679 1419.22 563.019 1418.89 562.193C1418.56 561.533 1418.23 561.038 1417.4 560.543C1416.58 560.048 1416.08 559.553 1415.42 559.223C1414.76 558.893 1413.77 558.398 1412.45 558.068C1411.12 557.738 1409.97 557.408 1408.98 557.078C1407.98 556.748 1406.66 556.418 1404.68 556.088C1402.86 555.593 1401.21 555.263 1400.05 554.933C1396.42 554.108 1393.11 553.118 1390.14 551.963C1387.16 550.808 1384.19 549.488 1381.38 547.673C1378.57 545.858 1376.09 543.878 1374.11 541.733C1372.13 539.422 1370.47 536.783 1369.15 533.482C1367.83 530.347 1367.17 526.717 1367.17 522.757C1367.17 516.652 1368.32 511.371 1370.8 506.586C1373.28 501.801 1376.59 498.006 1380.72 495.036C1384.85 492.065 1389.64 489.755 1395.09 488.27C1400.55 486.785 1406.5 485.96 1412.94 485.96C1426.82 485.96 1441.69 489.26 1457.22 496.026L1447.14 522.427C1439.71 517.642 1430.62 515.001 1420.05 514.176C1408.98 513.351 1403.36 514.671 1403.36 518.137C1403.36 518.467 1403.36 518.962 1403.69 519.622C1404.02 520.282 1404.51 520.777 1405.34 521.437C1406.16 521.932 1406.99 522.427 1407.65 522.757C1408.31 523.087 1409.63 523.582 1411.29 523.912C1412.94 524.242 1414.43 524.737 1415.59 525.067C1418.23 525.727 1420.05 526.222 1421.04 526.387C1421.37 526.387 1421.53 526.387 1421.7 526.387C1424.51 527.047 1426.82 527.542 1429.13 528.202C1431.45 528.862 1433.76 529.687 1436.4 530.677C1439.05 531.667 1441.53 532.822 1443.67 533.977C1445.82 535.132 1447.81 536.617 1449.95 538.433C1452.1 540.247 1453.75 542.228 1455.07 544.373C1456.4 546.518 1457.55 548.993 1458.38 551.963C1459.21 554.933 1459.7 558.068 1459.7 561.533C1459.7 566.979 1458.71 571.764 1456.89 575.889C1454.91 580.179 1452.43 583.644 1449.29 586.285C1446.15 588.925 1442.35 591.235 1437.89 593.05C1433.43 594.865 1428.97 596.02 1424.34 596.845C1419.71 597.505 1414.92 598 1409.63 598H1409.47Z" fill="#006240"/>
</g>
</g>
<defs>
<clipPath id="clip0_205_321">
<rect width="999" height="116" fill="white" transform="translate(461 482)"/>
</clipPath>
</defs>
</svg>
