<svg width="1920" height="1080" viewBox="0 0 1920 1080" fill="none" xmlns="http://www.w3.org/2000/svg">
<rect width="1920" height="1080" fill="#B08E67"/>
<path d="M591.44 598C597.307 598 602.907 596.067 608.24 592.2C613.573 588.2 618.507 582.867 623.04 576.2L624.04 577C623.107 578.333 621.573 580.533 619.44 583.6C617.307 586.533 614.573 589.533 611.24 592.6C608.04 595.667 604.173 598.333 599.64 600.6C595.107 602.867 589.973 604 584.24 604C577.307 604 570.773 602.667 564.64 600C558.64 597.2 553.373 593.533 548.84 589C544.307 584.333 540.773 578.867 538.24 572.6C535.84 566.333 534.773 559.733 535.04 552.8C535.307 546.533 536.64 540.6 539.04 535C541.573 529.4 544.907 524.533 549.04 520.4C553.307 516.133 558.173 512.733 563.64 510.2C569.24 507.533 575.173 506 581.44 505.6C590.24 505.2 598.307 506.867 605.64 510.6C613.107 514.2 619.173 519.267 623.84 525.8C625.84 528.467 626.907 531.333 627.04 534.4C627.173 537.467 626.573 540.333 625.24 543C623.907 545.533 621.973 547.667 619.44 549.4C616.907 551 613.973 551.8 610.64 551.8C606.373 551.8 602.64 550.4 599.44 547.6C596.373 544.667 594.64 541.067 594.24 536.8C593.44 528.267 592.107 521.2 590.24 515.6C588.507 509.867 586.507 507 584.24 507C582.773 507 581.373 508.267 580.04 510.8C578.707 513.333 577.507 516.8 576.44 521.2C575.507 525.6 574.773 530.733 574.24 536.6C573.707 542.333 573.44 548.4 573.44 554.8C573.44 559.067 573.507 563.733 573.64 568.8C573.907 573.733 574.64 578.4 575.84 582.8C577.04 587.067 578.84 590.667 581.24 593.6C583.64 596.533 587.04 598 591.44 598Z" fill="white"/>
<path d="M685.082 505.6C692.282 505.6 699.016 506.933 705.282 509.6C711.549 512.133 717.016 515.667 721.682 520.2C726.349 524.6 730.016 529.8 732.682 535.8C735.482 541.8 736.882 548.2 736.882 555C736.882 561.8 735.482 568.2 732.682 574.2C730.016 580.2 726.349 585.4 721.682 589.8C717.016 594.2 711.549 597.733 705.282 600.4C699.016 602.933 692.282 604.2 685.082 604.2C677.882 604.2 671.149 602.933 664.882 600.4C658.616 597.733 653.149 594.2 648.482 589.8C643.816 585.4 640.082 580.2 637.282 574.2C634.616 568.2 633.282 561.8 633.282 555C633.282 548.2 634.616 541.8 637.282 535.8C640.082 529.8 643.816 524.6 648.482 520.2C653.149 515.667 658.616 512.133 664.882 509.6C671.149 506.933 677.882 505.6 685.082 505.6ZM685.082 603.4C687.082 603.4 688.882 602.133 690.482 599.6C692.216 597.067 693.749 593.6 695.082 589.2C696.416 584.8 697.416 579.667 698.082 573.8C698.882 567.933 699.282 561.667 699.282 555C699.282 548.333 698.882 542.067 698.082 536.2C697.416 530.333 696.416 525.2 695.082 520.8C693.749 516.4 692.216 512.933 690.482 510.4C688.882 507.867 687.082 506.6 685.082 506.6C683.082 506.6 681.216 507.867 679.482 510.4C677.882 512.933 676.416 516.4 675.082 520.8C673.749 525.2 672.682 530.333 671.882 536.2C671.216 542.067 670.882 548.333 670.882 555C670.882 561.667 671.216 567.933 671.882 573.8C672.682 579.667 673.749 584.8 675.082 589.2C676.416 593.6 677.882 597.067 679.482 599.6C681.216 602.133 683.082 603.4 685.082 603.4Z" fill="white"/>
<path d="M786.667 508.4H816.267V509.6H786.667V602H794.267V603.2H741.467V602H749.067V508.4C749.067 503.333 749.8 498.333 751.267 493.4C752.867 488.333 755.133 483.867 758.067 480C761.133 476.133 764.867 473 769.267 470.6C773.8 468.2 779 467 784.867 467H791.267C793.8 467 796.533 467.467 799.467 468.4C802.533 469.333 805.333 470.6 807.867 472.2C810.533 473.8 812.8 475.733 814.667 478C816.533 480.133 817.6 482.533 817.867 485.2C818.133 487.2 817.933 489.133 817.267 491C816.733 492.733 815.867 494.333 814.667 495.8C813.467 497.133 812.067 498.267 810.467 499.2C808.867 500 807.067 500.4 805.067 500.4C802.533 500.4 800.4 500.067 798.667 499.4C797.067 498.6 795.6 497.533 794.267 496.2C793.067 494.733 791.867 493 790.667 491C789.6 488.867 788.333 486.467 786.867 483.8C784.6 479.267 782.067 475.8 779.267 473.4C776.6 470.867 774.267 470 772.267 470.8C770.133 471.733 769 474.333 768.867 478.6C768.867 482.867 770 487.6 772.267 492.8C774.267 497.467 776.6 501.333 779.267 504.4C782.067 507.333 784.533 508.667 786.667 508.4Z" fill="white"/>
<path d="M862.838 508.4H892.438V509.6H862.838V602H870.438V603.2H817.638V602H825.238V508.4C825.238 503.333 825.972 498.333 827.438 493.4C829.038 488.333 831.305 483.867 834.238 480C837.305 476.133 841.038 473 845.438 470.6C849.972 468.2 855.172 467 861.038 467H867.438C869.972 467 872.705 467.467 875.638 468.4C878.705 469.333 881.505 470.6 884.038 472.2C886.705 473.8 888.972 475.733 890.838 478C892.705 480.133 893.772 482.533 894.038 485.2C894.305 487.2 894.105 489.133 893.438 491C892.905 492.733 892.038 494.333 890.838 495.8C889.638 497.133 888.238 498.267 886.638 499.2C885.038 500 883.238 500.4 881.238 500.4C878.705 500.4 876.572 500.067 874.838 499.4C873.238 498.6 871.772 497.533 870.438 496.2C869.238 494.733 868.038 493 866.838 491C865.772 488.867 864.505 486.467 863.038 483.8C860.772 479.267 858.238 475.8 855.438 473.4C852.772 470.867 850.438 470 848.438 470.8C846.305 471.733 845.172 474.333 845.038 478.6C845.038 482.867 846.172 487.6 848.438 492.8C850.438 497.467 852.772 501.333 855.438 504.4C858.238 507.333 860.705 508.667 862.838 508.4Z" fill="white"/>
<path d="M946.649 596.4C950.249 596.4 954.249 594.667 958.649 591.2C963.183 587.6 967.716 582.467 972.249 575.8L973.249 576.6C972.316 577.933 970.783 580.133 968.649 583.2C966.516 586.133 963.783 589.133 960.449 592.2C957.249 595.133 953.383 597.733 948.849 600C944.449 602.267 939.383 603.4 933.649 603.4C925.249 603.4 917.916 601.8 911.649 598.6C905.383 595.267 900.183 591.133 896.049 586.2C892.049 581.133 889.116 575.6 887.249 569.6C885.383 563.6 884.516 557.933 884.649 552.6C884.916 546.333 886.249 540.467 888.649 535C891.183 529.4 894.516 524.533 898.649 520.4C902.916 516.133 907.783 512.733 913.249 510.2C918.716 507.533 924.583 506 930.849 505.6C939.516 505.2 947.516 506.867 954.849 510.6C962.183 514.2 968.183 519.2 972.849 525.6C974.849 528.267 975.916 531.133 976.049 534.2C976.183 537.267 975.583 540.133 974.249 542.8C972.916 545.333 970.983 547.467 968.449 549.2C965.916 550.8 962.983 551.6 959.649 551.6C957.916 551.6 955.916 551.6 953.649 551.6C951.383 551.467 949.049 551.533 946.649 551.8C944.383 552.067 942.116 552.6 939.849 553.4C937.716 554.2 935.916 555.467 934.449 557.2C933.783 558 933.116 558.8 932.449 559.6C931.916 560.4 931.383 561.267 930.849 562.2C928.983 565.267 927.983 568.667 927.849 572.4C927.849 576 928.716 579.4 930.449 582.6C931.249 584.2 932.249 585.867 933.449 587.6C934.649 589.2 935.916 590.667 937.249 592C938.716 593.2 940.249 594.267 941.849 595.2C943.449 596 945.049 596.4 946.649 596.4ZM922.649 554.4C922.649 561.2 923.649 567.333 925.649 572.8C926.316 568.667 927.383 565.4 928.849 563C930.449 560.467 932.116 558.067 933.849 555.8C934.916 554.333 935.916 552.933 936.849 551.6C937.916 550.267 938.916 548.733 939.849 547C940.783 545.133 941.516 543 942.049 540.6C942.583 538.067 942.849 535.067 942.849 531.6C942.849 528 942.516 524.733 941.849 521.8C941.316 518.733 940.583 516.133 939.649 514C938.849 511.733 937.849 510 936.649 508.8C935.583 507.6 934.516 507 933.449 507C931.983 507 930.583 508.267 929.249 510.8C928.049 513.333 926.916 516.8 925.849 521.2C924.916 525.467 924.116 530.467 923.449 536.2C922.916 541.933 922.649 548 922.649 554.4Z" fill="white"/>
<path d="M1044.31 596.4C1047.91 596.4 1051.91 594.667 1056.31 591.2C1060.84 587.6 1065.37 582.467 1069.91 575.8L1070.91 576.6C1069.97 577.933 1068.44 580.133 1066.31 583.2C1064.17 586.133 1061.44 589.133 1058.11 592.2C1054.91 595.133 1051.04 597.733 1046.51 600C1042.11 602.267 1037.04 603.4 1031.31 603.4C1022.91 603.4 1015.57 601.8 1009.31 598.6C1003.04 595.267 997.839 591.133 993.706 586.2C989.706 581.133 986.772 575.6 984.906 569.6C983.039 563.6 982.172 557.933 982.306 552.6C982.572 546.333 983.906 540.467 986.306 535C988.839 529.4 992.172 524.533 996.306 520.4C1000.57 516.133 1005.44 512.733 1010.91 510.2C1016.37 507.533 1022.24 506 1028.51 505.6C1037.17 505.2 1045.17 506.867 1052.51 510.6C1059.84 514.2 1065.84 519.2 1070.51 525.6C1072.51 528.267 1073.57 531.133 1073.71 534.2C1073.84 537.267 1073.24 540.133 1071.91 542.8C1070.57 545.333 1068.64 547.467 1066.11 549.2C1063.57 550.8 1060.64 551.6 1057.31 551.6C1055.57 551.6 1053.57 551.6 1051.31 551.6C1049.04 551.467 1046.71 551.533 1044.31 551.8C1042.04 552.067 1039.77 552.6 1037.51 553.4C1035.37 554.2 1033.57 555.467 1032.11 557.2C1031.44 558 1030.77 558.8 1030.11 559.6C1029.57 560.4 1029.04 561.267 1028.51 562.2C1026.64 565.267 1025.64 568.667 1025.51 572.4C1025.51 576 1026.37 579.4 1028.11 582.6C1028.91 584.2 1029.91 585.867 1031.11 587.6C1032.31 589.2 1033.57 590.667 1034.91 592C1036.37 593.2 1037.91 594.267 1039.51 595.2C1041.11 596 1042.71 596.4 1044.31 596.4ZM1020.31 554.4C1020.31 561.2 1021.31 567.333 1023.31 572.8C1023.97 568.667 1025.04 565.4 1026.51 563C1028.11 560.467 1029.77 558.067 1031.51 555.8C1032.57 554.333 1033.57 552.933 1034.51 551.6C1035.57 550.267 1036.57 548.733 1037.51 547C1038.44 545.133 1039.17 543 1039.71 540.6C1040.24 538.067 1040.51 535.067 1040.51 531.6C1040.51 528 1040.17 524.733 1039.51 521.8C1038.97 518.733 1038.24 516.133 1037.31 514C1036.51 511.733 1035.51 510 1034.31 508.8C1033.24 507.6 1032.17 507 1031.11 507C1029.64 507 1028.24 508.267 1026.91 510.8C1025.71 513.333 1024.57 516.8 1023.51 521.2C1022.57 525.467 1021.77 530.467 1021.11 536.2C1020.57 541.933 1020.31 548 1020.31 554.4Z" fill="white"/>
<path d="M1103.63 503.4C1099.23 503.4 1095.5 501.933 1092.43 499C1089.5 495.933 1088.03 492.2 1088.03 487.8C1088.03 483.533 1089.5 479.933 1092.43 477C1095.5 473.933 1099.23 472.4 1103.63 472.4C1107.9 472.4 1111.5 473.933 1114.43 477C1117.5 479.933 1119.03 483.533 1119.03 487.8C1119.03 492.2 1117.5 495.933 1114.43 499C1111.5 501.933 1107.9 503.4 1103.63 503.4ZM1132.03 602V603.2H1079.23V602H1086.83V511.8L1075.03 513.4V512.2L1086.83 510.6L1124.43 505.8V602H1132.03Z" fill="white"/>
<path d="M1250.37 602H1257.97V603.2H1205.17V602H1212.77V583.8H1212.97V556.4C1212.97 550.533 1212.97 544.8 1212.97 539.2C1212.97 533.467 1212.71 528.333 1212.17 523.8C1211.64 519.133 1210.64 515.4 1209.17 512.6C1207.84 509.8 1205.77 508.4 1202.97 508.4C1199.24 508.4 1195.97 509.067 1193.17 510.4C1190.51 511.6 1187.91 513.267 1185.37 515.4V602H1192.97V603.2H1140.17V602H1147.77V512.2L1135.97 513.8V512.6L1147.77 511L1185.37 506.2V513.8C1187.64 511.933 1190.17 510.4 1192.97 509.2C1195.91 507.867 1199.24 507.2 1202.97 507.2C1218.57 507.2 1230.37 509.733 1238.37 514.8C1246.37 519.733 1250.37 528.333 1250.37 540.6V602Z" fill="white"/>
<path d="M1342.97 583.4C1348.57 583.4 1352.83 584.333 1355.77 586.2C1358.83 588.067 1361.03 590.4 1362.37 593.2C1363.7 595.867 1364.43 598.8 1364.57 602C1364.7 605.067 1364.77 607.933 1364.77 610.6C1364.77 615.8 1364.17 619.867 1362.97 622.8C1361.9 625.867 1360.37 628.133 1358.37 629.6C1356.37 631.067 1354.03 632 1351.37 632.4C1348.7 632.8 1345.9 633 1342.97 633C1340.17 633 1336.23 632.6 1331.17 631.8C1329.03 631.533 1326.23 631.2 1322.77 630.8C1319.43 630.4 1315.83 630 1311.97 629.6C1308.23 629.333 1304.43 629.067 1300.57 628.8C1296.83 628.667 1293.57 628.6 1290.77 628.6C1287.3 628.6 1284.03 628.2 1280.97 627.4C1277.9 626.6 1275.17 625.2 1272.77 623.2C1270.5 621.2 1268.7 618.533 1267.37 615.2C1266.03 612 1265.37 608 1265.37 603.2C1265.37 598.8 1265.7 594.933 1266.37 591.6C1267.03 588.133 1267.9 585.133 1268.97 582.6C1270.17 579.933 1271.43 577.667 1272.77 575.8C1274.1 573.8 1275.36 572.067 1276.57 570.6C1272.7 567.267 1269.63 563.467 1267.37 559.2C1265.23 554.8 1264.17 550.133 1264.17 545.2C1264.17 540 1265.43 535.067 1267.97 530.4C1270.5 525.733 1273.9 521.733 1278.17 518.4C1282.57 514.933 1287.7 512.2 1293.57 510.2C1299.43 508.2 1305.7 507.2 1312.37 507.2C1318.5 507.2 1324.3 508.067 1329.77 509.8C1335.23 511.4 1340.1 513.667 1344.37 516.6C1345.83 516.067 1347.5 515.4 1349.37 514.6C1351.37 513.8 1353.3 512.667 1355.17 511.2C1353.97 511.6 1352.63 511.8 1351.17 511.8C1347.43 511.8 1344.3 510.533 1341.77 508C1339.23 505.467 1337.97 502.333 1337.97 498.6C1337.97 495 1339.23 491.933 1341.77 489.4C1344.3 486.733 1347.43 485.4 1351.17 485.4C1354.63 485.4 1357.7 486.667 1360.37 489.2C1363.03 491.6 1364.37 494.533 1364.37 498C1364.37 499.467 1364.1 501 1363.57 502.6C1363.16 504.2 1362.63 505.4 1361.97 506.2C1360.1 509.267 1357.5 511.733 1354.17 513.6C1350.83 515.333 1347.97 516.667 1345.57 517.6C1350.23 521.067 1353.9 525.2 1356.57 530C1359.23 534.667 1360.57 539.733 1360.57 545.2C1360.57 550.4 1359.3 555.333 1356.77 560C1354.23 564.667 1350.77 568.733 1346.37 572.2C1342.1 575.667 1337.03 578.4 1331.17 580.4C1325.3 582.4 1319.03 583.4 1312.37 583.4C1305.43 583.4 1298.97 582.333 1292.97 580.2C1286.97 578.067 1281.77 575.133 1277.37 571.4C1276.7 572.067 1276.1 572.8 1275.57 573.6C1275.16 574.4 1274.7 575.2 1274.17 576C1273.5 577.2 1273.23 578.667 1273.37 580.4C1273.63 582.133 1274.43 583.8 1275.77 585.4C1277.23 587 1279.3 588.4 1281.97 589.6C1284.63 590.8 1288.03 591.4 1292.17 591.4C1296.83 591.4 1301.5 591 1306.17 590.2C1310.97 589.267 1315.57 588.333 1319.97 587.4C1324.5 586.333 1328.7 585.4 1332.57 584.6C1336.57 583.8 1340.03 583.4 1342.97 583.4ZM1312.37 508.2C1310.9 508.2 1309.5 509.2 1308.17 511.2C1306.97 513.067 1305.83 515.667 1304.77 519C1303.83 522.333 1303.1 526.267 1302.57 530.8C1302.03 535.333 1301.77 540.133 1301.77 545.2C1301.77 546.533 1301.77 547.867 1301.77 549.2C1301.77 550.4 1301.83 551.667 1301.97 553C1304.37 552.333 1306.3 552 1307.77 552C1311.36 552 1314.36 552.4 1316.77 553.2C1319.17 553.867 1321.1 554.8 1322.57 556C1322.83 554.267 1322.97 552.533 1322.97 550.8C1322.97 548.933 1322.97 547.067 1322.97 545.2C1322.97 540.133 1322.7 535.333 1322.17 530.8C1321.63 526.267 1320.9 522.333 1319.97 519C1319.03 515.667 1317.9 513.067 1316.57 511.2C1315.23 509.2 1313.83 508.2 1312.37 508.2ZM1312.37 582.4C1314.63 582.4 1316.7 580.067 1318.57 575.4C1320.43 570.733 1321.7 564.8 1322.37 557.6C1321.17 556.267 1319.37 555.2 1316.97 554.4C1314.7 553.6 1311.63 553.2 1307.77 553.2C1306.3 553.2 1304.43 553.533 1302.17 554.2C1302.7 562.333 1303.9 569.067 1305.77 574.4C1307.63 579.733 1309.83 582.4 1312.37 582.4ZM1353.97 629.8C1354.9 629.4 1355.57 628.667 1355.97 627.6C1356.37 626.667 1356.3 625.667 1355.77 624.6C1355.23 623.667 1354.16 622.8 1352.57 622C1350.97 621.2 1348.57 620.8 1345.37 620.8C1340.97 620.8 1335.36 621.667 1328.57 623.4C1321.77 625.133 1314.17 626.533 1305.77 627.6C1311.1 628 1315.9 628.467 1320.17 629C1324.57 629.533 1328.36 630 1331.57 630.4C1336.63 631.2 1340.43 631.6 1342.97 631.6C1345.5 631.6 1347.63 631.467 1349.37 631.2C1351.1 630.933 1352.63 630.467 1353.97 629.8Z" fill="white"/>
</svg>
