<svg width="1920" height="1080" viewBox="0 0 1920 1080" fill="none" xmlns="http://www.w3.org/2000/svg">
<rect width="1920" height="1080" fill="#469FF6"/>
<g clip-path="url(#clip0_1_1674)">
<path d="M801.56 608.408C802.233 614.662 797.494 620.185 791.205 620.506C774.386 621.383 752.799 621.763 742.123 621.149C723.373 619.367 713.194 607.795 711.585 590.262C710.591 577.492 710.795 479.394 712.609 467.237C713.399 461.072 719.366 456.864 725.976 455.87C741.099 454.409 768.946 454.526 788.017 455.812C794.247 456.221 798.869 461.744 798.167 467.968L797.962 469.751C797.319 475.478 792.375 479.686 786.613 479.481C770.35 478.839 751.337 478.926 743.322 479.423C740.719 479.628 739.519 481.03 739.139 486.612C738.73 491.988 738.145 577.112 738.73 587.076C738.934 593.856 742.328 597.45 749.903 598.444C757.158 599.671 776.17 599.496 789.977 598.59C795.827 598.21 800.916 602.506 801.56 608.35V608.438V608.408ZM833.648 465.017C836.193 497.979 836.514 578.777 835.022 610.337C834.701 616.883 828.763 621.704 822.299 620.652L817.823 619.922C812.441 619.045 808.551 614.37 808.639 608.934C808.902 594.499 809.194 567.498 809.311 551.572C809.37 545.377 804.251 540.38 798.05 540.555L790.708 540.76C784.858 540.906 779.885 536.435 779.476 530.59V530.181C779.008 524.016 783.746 518.697 789.947 518.463L797.728 518.142C803.666 517.908 808.346 512.97 808.258 507.038C808.053 495.641 807.644 478.429 807.03 467.5C806.737 462.094 810.423 457.244 815.746 456.133L820.514 455.14C827.008 453.795 833.15 458.442 833.677 465.046L833.648 465.017ZM868.485 464.081C870.942 497.044 871.235 577.842 869.743 608.905C869.421 615.305 863.717 620.097 857.37 619.25L852.895 618.665C847.337 617.935 843.242 613.142 843.359 607.561C844.09 578.398 843.827 497.248 841.955 466.565C841.633 461.101 845.377 456.221 850.73 455.14L855.41 454.205C861.845 452.919 867.988 457.536 868.485 464.081Z" fill="white"/>
<path d="M971.71 626L967.41 625.883C961.531 625.708 956.822 620.915 956.792 615.042L956.558 587.076C956.5 581.144 951.732 576.323 945.794 576.206C931.578 575.972 910.576 575.388 897.004 574.686C890.862 574.365 886.211 569.076 886.65 562.939C887.088 557.065 892.061 552.595 897.94 552.799C927.22 553.88 1002.36 553.939 1038.28 552.799C1044.11 552.624 1049.05 557.036 1049.52 562.851V562.968C1050.04 569.134 1045.33 574.511 1039.13 574.803C1025.68 575.446 1006.37 575.943 993.736 576.177C987.769 576.293 982.972 581.144 982.972 587.135V615.071C982.972 621.237 977.853 626.204 971.681 626H971.71ZM1030.53 546.195H1026.35C1020.15 546.195 1015.18 541.052 1015.41 534.857C1015.94 519.983 1016.35 499.82 1014.94 491.345C1012.75 479.569 1012.75 479.394 1000.17 479.394C990.986 479.394 933.48 479.248 904.2 480.183C898.613 480.358 893.816 476.296 893.026 470.773L892.704 468.465C891.798 462.007 896.682 456.192 903.205 455.987C934.006 455.052 998.094 454.438 1010.76 455.286C1031.32 455.695 1038.11 460.078 1040.51 475.42C1041.94 484.098 1042.5 517.207 1041.5 535.821C1041.18 541.636 1036.38 546.195 1030.56 546.195H1030.53Z" fill="white"/>
<path d="M1079.38 598.882C1111.97 600.489 1185.56 601.395 1218.67 599.32C1224.49 598.97 1229.58 603.178 1230.26 608.993L1230.31 609.46C1231.05 615.714 1226.39 621.295 1220.11 621.646C1183.31 623.838 1111 623.282 1078.21 621.558C1072.04 621.237 1067.39 615.889 1067.89 609.753L1067.94 608.964C1068.41 603.061 1073.47 598.619 1079.38 598.911V598.882ZM1104.51 525.243C1097.14 525.243 1095.12 525.857 1095.12 532.607C1095.12 545.377 1095.53 548.942 1109.68 550.14C1121 551.017 1178.6 550.958 1205.71 550.023C1211.27 549.819 1216.1 553.851 1216.92 559.345L1217.06 560.338C1218.03 566.796 1213.14 572.67 1206.62 572.904C1176.76 573.897 1120.48 573.401 1107.11 572.904C1073.18 570.712 1068.79 553.968 1070.2 523.256C1070.61 513.671 1073.18 502.713 1085.76 502.713C1093.54 502.713 1185.53 502.713 1190.53 502.304C1192.32 501.895 1192.14 502.099 1192.73 500.317C1193.14 496.722 1193.14 484.566 1192.93 482.784C1192.73 479.598 1191.53 478.985 1188.75 478.809C1183.16 478.459 1112.79 478.254 1084.12 478.751C1078.65 478.839 1073.97 474.864 1073.12 469.488L1073.03 468.962C1072.04 462.504 1076.87 456.601 1083.39 456.338C1115.33 455.081 1186.94 455.169 1201.3 456.893C1212.88 458.091 1218.06 462.679 1219.05 471.241C1219.84 480.417 1220.25 500.96 1218.47 508.908C1217.06 518.668 1209.49 523.87 1199.31 524.659C1191.94 525.652 1111.29 525.243 1104.51 525.243Z" fill="white"/>
<path d="M1258.98 598.882C1291.56 600.489 1365.16 601.395 1398.3 599.32C1404.12 598.97 1409.21 603.178 1409.88 608.993L1409.94 609.46C1410.67 615.714 1406.02 621.295 1399.73 621.646C1362.94 623.838 1290.63 623.282 1257.84 621.558C1251.67 621.237 1247.02 615.889 1247.51 609.753L1247.57 608.964C1248.04 603.061 1253.1 598.619 1259.01 598.911L1258.98 598.882ZM1284.11 525.243C1276.73 525.243 1274.72 525.857 1274.72 532.607C1274.72 545.377 1275.13 548.942 1289.28 550.14C1300.6 551.017 1358.2 550.958 1385.31 550.023C1390.87 549.819 1395.7 553.851 1396.52 559.345L1396.66 560.338C1397.63 566.796 1392.74 572.67 1386.22 572.904C1356.35 573.897 1300.08 573.401 1286.71 572.904C1252.78 570.712 1248.39 553.968 1249.79 523.256C1250.2 513.671 1252.78 502.713 1265.36 502.713C1273.14 502.713 1365.13 502.713 1370.13 502.304C1371.92 501.895 1371.74 502.099 1372.33 500.317C1372.73 496.722 1372.73 484.566 1372.53 482.784C1372.33 479.598 1371.13 478.985 1368.35 478.809C1362.76 478.459 1292.38 478.254 1263.72 478.751C1258.25 478.839 1253.57 474.864 1252.72 469.488L1252.63 468.962C1251.64 462.504 1256.46 456.601 1262.99 456.338C1294.93 455.081 1366.53 455.169 1380.9 456.893C1392.48 458.091 1397.66 462.679 1398.65 471.241C1399.44 480.417 1399.85 500.96 1398.04 508.908C1396.63 518.668 1389.06 523.87 1378.88 524.659C1371.51 525.652 1290.86 525.243 1284.08 525.243H1284.11Z" fill="white"/>
</g>
<path d="M635.131 488.151C621.587 473.652 603.609 464.857 584.253 463.196L602.206 445.238C604.336 443.114 605.508 440.281 605.508 437.274C605.508 434.267 604.336 431.434 602.206 429.31C600.082 427.178 597.249 426.007 594.243 426.007C591.237 426.007 588.405 427.178 586.281 429.31L549.384 466.215C547.254 468.34 546.082 471.173 546.082 474.18C546.082 477.186 547.254 480.019 549.384 482.144L586.281 519.05C588.411 521.181 591.237 522.353 594.243 522.353C597.249 522.353 600.082 521.181 602.206 519.05C604.336 516.925 605.508 514.092 605.508 511.085C605.508 508.079 604.336 505.246 602.206 503.121L585.058 485.969C613.168 489.806 634.693 514.82 634.693 544.469C634.693 577.009 609.048 603.485 577.52 603.485C571.186 603.485 564.975 602.422 559.027 600.323C565.213 591.335 568.605 578.767 568.605 564.699C568.605 537.181 555.358 516.429 537.785 516.429C520.212 516.429 506.965 537.181 506.965 564.699C506.965 579.076 510.666 592.249 517.161 601.193C512.694 602.615 508.021 603.337 503.244 603.337C478.031 603.337 457.516 582.817 457.516 557.597C457.516 539.331 468.504 522.758 485.105 515.599L478.964 540.02C478.23 542.937 478.675 545.969 480.219 548.551C481.764 551.133 484.223 552.961 487.139 553.695C488.047 553.921 488.974 554.037 489.894 554.037C495.063 554.037 499.55 550.534 500.811 545.519L513.543 494.905C514.277 491.989 513.833 488.956 512.288 486.374C510.743 483.792 508.284 481.964 505.369 481.23L454.768 468.494C448.743 466.975 442.608 470.651 441.096 476.671C440.362 479.588 440.806 482.621 442.351 485.202C443.896 487.784 446.355 489.613 449.271 490.347L473.074 496.335C449.831 507.737 435 531.392 435 557.578C435 595.224 465.62 625.852 503.257 625.852C515.829 625.852 528.13 622.375 538.899 615.795C550.659 622.478 563.996 626.007 577.527 626.007C621.471 626.007 657.229 589.423 657.229 544.456C657.229 523.402 649.382 503.411 635.137 488.158L635.131 488.151ZM546.082 564.673C546.082 581.137 539.568 589.919 537.791 590.402C536.015 589.919 529.501 581.13 529.501 564.673C529.501 548.216 536.015 539.428 537.791 538.945C539.568 539.428 546.082 548.216 546.082 564.673Z" fill="white"/>
<defs>
<clipPath id="clip0_1_1674">
<rect width="699" height="172" fill="white" transform="translate(711 454)"/>
</clipPath>
</defs>
</svg>
